<?xml version="1.0" encoding="UTF-8"?>
<svg id="Layer_1" data-name="Layer 1" xmlns="http://www.w3.org/2000/svg" viewBox="0 0 693 166.36">
  <defs>
    <style>
      .cls-1 {
        fill: #3f9cfb;
      }

      .cls-1, .cls-2 {
        stroke-width: 0px;
      }

      .cls-2 {
        fill: #162b3a;
      }
    </style>
  </defs>
  <g>
    <path class="cls-2" d="M191.27,32.28c6.94,0,12.54,2.25,16.78,6.74,4.25,4.49,6.37,10.54,6.37,18.13v37.98h-13.23v-37.12c0-4.17-1.06-7.43-3.19-9.8-2.13-2.37-5.02-3.55-8.7-3.55-4.17,0-7.43,1.37-9.8,4.1-2.37,2.74-3.55,6.76-3.55,12.07v34.31h-13.23v-37.12c0-4.25-1-7.53-3-9.86-2-2.33-4.84-3.49-8.51-3.49-4.09,0-7.37,1.39-9.86,4.17-2.49,2.78-3.74,6.78-3.74,12.01v34.31h-13.23v-61.26h13.23v7.35c3.92-5.96,9.76-8.94,17.52-8.94s13.64,3.23,17.4,9.68c4-6.45,10.25-9.68,18.75-9.68Z"/>
    <path class="cls-2" d="M253.45,96.73c-9.07,0-16.7-3.1-22.91-9.31-6.29-6.29-9.43-13.92-9.43-22.91s3.14-16.62,9.43-22.91c6.21-6.21,13.84-9.31,22.91-9.31s16.7,3.11,22.91,9.31c6.29,6.29,9.43,13.93,9.43,22.91s-3.14,16.62-9.43,22.91c-6.21,6.21-13.85,9.31-22.91,9.31ZM234.34,64.51c0,5.56,1.84,10.17,5.51,13.85,3.68,3.68,8.21,5.51,13.6,5.51s9.92-1.84,13.6-5.51c3.68-3.68,5.51-8.29,5.51-13.85s-1.84-10.17-5.51-13.84c-3.68-3.68-8.21-5.51-13.6-5.51s-9.92,1.84-13.6,5.51-5.51,8.29-5.51,13.84Z"/>
    <path class="cls-2" d="M322.15,96.73c-9.23,0-16.95-3.1-23.16-9.31-6.13-6.29-9.19-13.92-9.19-22.91s3.06-16.78,9.19-22.91c6.21-6.21,13.93-9.31,23.16-9.31,5.96,0,11.39,1.43,16.29,4.29,4.9,2.86,8.58,6.7,11.03,11.52l-11.39,6.62c-1.39-2.94-3.49-5.25-6.31-6.92-2.82-1.67-6.06-2.51-9.74-2.51-5.39,0-9.92,1.84-13.6,5.51-3.6,3.76-5.39,8.33-5.39,13.72s1.8,9.97,5.39,13.72c3.68,3.68,8.21,5.51,13.6,5.51,3.59,0,6.84-.84,9.74-2.51,2.9-1.67,5.09-3.98,6.56-6.92l11.39,6.49c-2.61,4.9-6.39,8.78-11.33,11.64s-10.35,4.29-16.23,4.29Z"/>
    <path class="cls-2" d="M381.44,63.89l27.93,31.24h-15.81l-25.12-28.3v28.3h-13.23V9.37h13.23v51.58l23.77-27.08h16.17l-26.95,30.02Z"/>
    <path class="cls-2" d="M468.93,70.14h-48.76c.98,4.57,3.2,8.13,6.68,10.66,3.47,2.53,7.78,3.8,12.93,3.8,6.94,0,12.21-2.53,15.8-7.6l10.9,6.37c-5.96,8.9-14.91,13.36-26.83,13.36-9.88,0-17.93-3.02-24.14-9.07-6.13-6.13-9.19-13.84-9.19-23.16s3.02-16.7,9.07-22.91c5.96-6.21,13.72-9.31,23.28-9.31,8.9,0,16.25,3.15,22.05,9.43,5.8,6.29,8.7,13.93,8.7,22.91,0,1.64-.17,3.47-.49,5.51ZM420.05,59.36h36.02c-.9-4.82-2.92-8.53-6.06-11.15-3.15-2.61-6.96-3.92-11.46-3.92-4.9,0-8.99,1.35-12.25,4.04-3.27,2.69-5.35,6.37-6.25,11.03Z"/>
    <path class="cls-2" d="M505.93,63.77l22.91,31.36h-15.32l-15.19-20.95-15.32,20.95h-15.44l23.03-31.49-21.81-29.77h15.32l14.09,19.36,14.09-19.36h15.44l-21.81,29.89Z"/>
    <path class="cls-2" d="M578.74,42.58v-8.7h13.23v61.26h-13.23v-8.82c-4.98,6.94-12.13,10.42-21.44,10.42-8.41,0-15.6-3.1-21.56-9.31-5.96-6.21-8.94-13.84-8.94-22.91s2.98-16.7,8.94-22.91c5.96-6.21,13.15-9.31,21.56-9.31,9.31,0,16.46,3.43,21.44,10.29ZM545.54,78.6c3.68,3.68,8.29,5.51,13.84,5.51s10.17-1.84,13.84-5.51c3.68-3.76,5.51-8.45,5.51-14.09s-1.84-10.29-5.51-13.97c-3.68-3.76-8.29-5.64-13.84-5.64s-10.17,1.88-13.84,5.64c-3.68,3.68-5.51,8.33-5.51,13.97s1.84,10.25,5.51,14.09Z"/>
    <path class="cls-2" d="M669.85,32.28c6.94,0,12.54,2.25,16.78,6.74,4.25,4.49,6.37,10.54,6.37,18.13v37.98h-13.23v-37.12c0-4.17-1.06-7.43-3.19-9.8-2.12-2.37-5.02-3.55-8.7-3.55-4.17,0-7.44,1.37-9.8,4.1-2.37,2.74-3.55,6.76-3.55,12.07v34.31h-13.23v-37.12c0-4.25-1-7.53-3-9.86-2-2.33-4.84-3.49-8.52-3.49-4.09,0-7.37,1.39-9.86,4.17-2.49,2.78-3.74,6.78-3.74,12.01v34.31h-13.23v-61.26h13.23v7.35c3.92-5.96,9.76-8.94,17.52-8.94s13.64,3.23,17.4,9.68c4-6.45,10.25-9.68,18.75-9.68Z"/>
  </g>
  <g>
    <path class="cls-1" d="M516.41,133.29c-1.82-1.91-4.23-2.86-7.24-2.86-3.71,0-6.49,1.47-8.32,4.42-1.63-2.95-4.22-4.42-7.79-4.42-3.46,0-6.1,1.39-7.9,4.17v-3.49h-4.62v26.04h4.62v-14.48c0-2.53.63-4.49,1.88-5.86s2.89-2.06,4.9-2.06c1.73,0,3.1.56,4.11,1.69,1.01,1.13,1.51,2.68,1.5,4.66v16.05h4.62v-14.49c0-2.6.57-4.57,1.72-5.91,1.15-1.34,2.75-2,4.8-2,1.8,0,3.23.56,4.27,1.69,1.04,1.13,1.55,2.68,1.54,4.66v16.05h4.62v-16.2c0-3.19-.91-5.75-2.73-7.66Z"/>
    <path class="cls-1" d="M547.46,131.75c-1.39-1.41-3.06-2.53-4.89-3.26-1.8-.7-3.72-1.05-5.65-1.03-4.17,0-7.69,1.43-10.54,4.29-2.65,2.6-4.17,6.14-4.26,9.85v.71c0,4.17,1.43,7.69,4.28,10.56,2.86,2.87,6.37,4.3,10.54,4.29,4.17,0,7.69-1.43,10.54-4.29,1.4-1.37,2.51-3.01,3.25-4.83.74-1.81,1.11-3.76,1.07-5.72.03-1.96-.33-3.91-1.08-5.73-.75-1.82-1.86-3.46-3.26-4.83ZM544.02,149.48c-1.89,1.85-4.43,2.88-7.07,2.88s-5.18-1.03-7.07-2.88c-1.91-1.92-2.87-4.31-2.88-7.17-.02-1.54.3-3.06.94-4.45.48-1.01,1.14-1.93,1.93-2.72.89-.91,1.94-1.63,3.11-2.12,1.17-.49,2.42-.75,3.69-.75h.25c1.32-.03,2.63.21,3.85.7,1.22.5,2.33,1.24,3.26,2.18,1.91,1.92,2.87,4.3,2.87,7.16s-.96,5.25-2.87,7.17h0Z"/>
    <path class="cls-1" d="M575.68,131.41c-1.89-2.09-4.41-3.13-7.55-3.13-3.93,0-6.82,1.59-8.68,4.78v-14.52l-4.67,3.13v35.47h4.67v-14.91c0-3.07.7-5.39,2.09-6.95,1.39-1.56,3.29-2.34,5.67-2.34,2.08,0,3.7.64,4.87,1.91,1.17,1.28,1.76,3.04,1.77,5.29v16.99h4.67v-17.28c0-3.56-.96-6.38-2.85-8.47Z"/>
    <path class="cls-1" d="M586.57,119.52c-.27-.31-.59-.56-.94-.72-.36-.17-.74-.25-1.13-.25-.4-.01-.79.07-1.16.24-.37.17-.7.42-.97.73-.28.3-.5.66-.65,1.06-.15.4-.22.82-.22,1.25,0,.42.07.84.22,1.23.15.39.37.74.65,1.03.28.31.61.55.98.71.37.16.76.24,1.16.23.39,0,.77-.08,1.12-.24.36-.16.68-.4.95-.7.28-.29.5-.65.65-1.03.15-.39.22-.81.22-1.23,0-.43-.07-.85-.22-1.25-.15-.4-.37-.76-.65-1.06ZM582.25,129.35v27.8h4.42v-27.8h-4.42Z"/>
    <path class="cls-1" d="M597.64,135.31v-4.41h-4.26v26.25h4.26v-13.92c0-2.87.75-4.95,2.25-6.25,1.52-1.3,3.44-1.94,5.37-1.78v-4.78c-3.68,0-6.22,1.63-7.62,4.88Z"/>
    <path class="cls-1" d="M630.04,121.64v11.94c-2.34-3.56-5.78-5.38-10.31-5.46h-.27c-1.88-.03-3.75.34-5.48,1.07-1.73.73-3.28,1.81-4.56,3.18-1.17,1.18-2.13,2.54-2.85,4.03-.89,1.96-1.34,4.08-1.3,6.23,0,4.05,1.38,7.49,4.15,10.32,1.28,1.36,2.84,2.43,4.57,3.15,1.73.72,3.6,1.08,5.48,1.05,4.67,0,8.21-1.82,10.6-5.46v4.74h4.89v-37.88l-4.91,3.09ZM627.18,149.71c-1.91,1.87-4.28,2.81-7.13,2.81-1.31.03-2.61-.2-3.83-.69-1.22-.48-2.32-1.21-3.24-2.13-.93-.93-1.66-2.03-2.16-3.25-.49-1.21-.73-2.51-.71-3.81,0-2.8.96-5.14,2.87-7.01,1.89-1.84,4.44-2.87,7.1-2.87s5.21,1.03,7.1,2.87c1.9,1.88,2.86,4.21,2.86,7.01.02,1.3-.22,2.6-.71,3.81s-1.22,2.31-2.15,3.24h0Z"/>
    <path class="cls-1" d="M664.64,142.36c0-4.14-1.22-7.64-3.65-10.5-2.41-2.93-5.53-4.4-9.36-4.4-4.04,0-7.34,1.41-9.88,4.23-2.55,2.79-3.82,6.33-3.83,10.62,0,4.25,1.29,7.8,3.87,10.66,2.64,2.79,6.02,4.18,10.14,4.18,5.1,0,8.93-2.13,11.51-6.38l-3.87-2.36c-1.57,2.74-4.08,4.12-7.53,4.12-2.51,0-4.6-.71-6.27-2.12-1.67-1.41-2.73-3.36-3.19-5.85h21.91c.1-.73.15-1.46.15-2.2ZM642.57,140.27c.38-2.52,1.38-4.51,3.01-5.98,1.62-1.47,3.64-2.2,6.04-2.2,2.03-.05,4.01.71,5.55,2.14,1.54,1.44,2.5,3.45,2.88,6.04h-17.47Z"/>
    <path class="cls-1" d="M686.36,130.42l-8.36,21.75-8.36-21.75h-5l10.65,26.72h5.43l10.65-26.72h-5Z"/>
    <g>
      <path class="cls-2" d="M428.66,130.41c3.53,0,6.53,1.29,9.02,3.88,2.49,2.59,3.73,5.71,3.73,9.37s-1.24,6.84-3.73,9.42c-2.45,2.55-5.46,3.83-9.02,3.83-4.17,0-7.34-1.66-9.52-4.99v4.33h-4.38v-35.27h4.38v14.41c2.18-3.33,5.36-4.99,9.52-4.99ZM428.11,152.68c2.52,0,4.63-.86,6.35-2.57,1.71-1.78,2.57-3.93,2.57-6.45s-.86-4.69-2.57-6.4c-1.71-1.75-3.83-2.62-6.35-2.62s-4.69.87-6.4,2.62c-1.71,1.71-2.57,3.85-2.57,6.4s.86,4.67,2.57,6.45c1.71,1.71,3.85,2.57,6.4,2.57Z"/>
      <path class="cls-2" d="M455.97,150.82l7.25-19.75h4.69l-10.28,26.75c-1.11,2.86-2.63,5.03-4.56,6.53-1.93,1.49-4.14,2.16-6.63,1.99v-4.08c3.09.23,5.36-1.48,6.8-5.14l.45-.96-10.98-25.09h4.69l8.57,19.75Z"/>
    </g>
  </g>
  <g>
    <path class="cls-1" d="M77.35,111.33H15.33c-8.45,0-15.33-6.88-15.33-15.33v-62.02c0-8.45,6.88-15.33,15.33-15.33h47.05l-4.46,7.72H15.33c-4.19,0-7.61,3.41-7.61,7.61v62.02c0,4.19,3.41,7.61,7.61,7.61h62.02c4.19,0,7.61-3.41,7.61-7.61v-22.4l7.72-11.29v33.68c0,8.45-6.88,15.33-15.33,15.33Z"/>
    <polygon class="cls-1" points="101 40.04 85.29 0 49.68 55.29 17.07 43.46 28.22 76.31 61.49 88.46 101 40.04"/>
  </g>
</svg>